<svg id="visual" viewBox="0 0 1920 1880" width="1920" height="1880" xmlns="http://www.w3.org/2000/svg" xmlns:xlink="http://www.w3.org/1999/xlink" version="1.1"><rect x="0" y="0" width="1920" height="1880" fill="#F0F4FF"></rect><defs><linearGradient id="grad1_0" x1="2.1%" y1="0%" x2="100%" y2="100%"><stop offset="29.574468085106385%" stop-color="#cddeff" stop-opacity="1"></stop><stop offset="70.42553191489361%" stop-color="#cddeff" stop-opacity="1"></stop></linearGradient></defs><defs><linearGradient id="grad1_1" x1="2.1%" y1="0%" x2="100%" y2="100%"><stop offset="29.574468085106385%" stop-color="#cddeff" stop-opacity="1"></stop><stop offset="70.42553191489361%" stop-color="#dfe9ff" stop-opacity="1"></stop></linearGradient></defs><defs><linearGradient id="grad1_2" x1="2.1%" y1="0%" x2="100%" y2="100%"><stop offset="29.574468085106385%" stop-color="#f0f4ff" stop-opacity="1"></stop><stop offset="70.42553191489361%" stop-color="#dfe9ff" stop-opacity="1"></stop></linearGradient></defs><defs><linearGradient id="grad2_0" x1="0%" y1="0%" x2="97.9%" y2="100%"><stop offset="29.574468085106385%" stop-color="#cddeff" stop-opacity="1"></stop><stop offset="70.42553191489361%" stop-color="#cddeff" stop-opacity="1"></stop></linearGradient></defs><defs><linearGradient id="grad2_1" x1="0%" y1="0%" x2="97.9%" y2="100%"><stop offset="29.574468085106385%" stop-color="#dfe9ff" stop-opacity="1"></stop><stop offset="70.42553191489361%" stop-color="#cddeff" stop-opacity="1"></stop></linearGradient></defs><defs><linearGradient id="grad2_2" x1="0%" y1="0%" x2="97.9%" y2="100%"><stop offset="29.574468085106385%" stop-color="#dfe9ff" stop-opacity="1"></stop><stop offset="70.42553191489361%" stop-color="#f0f4ff" stop-opacity="1"></stop></linearGradient></defs><g transform="translate(1920, 0)"><path d="M0 1074.9C-125.1 1025.6 -250.3 976.4 -386.5 933.1C-522.7 889.9 -670 852.7 -760 760C-850.1 667.4 -882.8 519.4 -925.7 383.4C-968.7 247.5 -1021.8 123.8 -1074.9 0L0 0Z" fill="#e8eeff"></path><path d="M0 716.6C-83.4 683.7 -166.9 650.9 -257.7 622.1C-348.5 593.3 -446.7 568.4 -506.7 506.7C-566.7 444.9 -588.5 346.2 -617.2 255.6C-645.8 165 -681.2 82.5 -716.6 0L0 0Z" fill="#d6e3ff"></path><path d="M0 358.3C-41.7 341.9 -83.4 325.5 -128.8 311C-174.2 296.6 -223.3 284.2 -253.3 253.3C-283.4 222.5 -294.3 173.1 -308.6 127.8C-322.9 82.5 -340.6 41.3 -358.3 0L0 0Z" fill="#cddeff"></path></g><g transform="translate(0, 1880)"><path d="M0 -1074.9C134.2 -1049.8 268.3 -1024.8 405.6 -979.3C542.9 -933.8 683.4 -867.8 760 -760C836.7 -652.3 849.7 -502.9 891.5 -369.3C933.4 -235.7 1004.1 -117.8 1074.9 0L0 0Z" fill="#e8eeff"></path><path d="M0 -716.6C89.4 -699.9 178.9 -683.2 270.4 -652.9C362 -622.5 455.6 -578.5 506.7 -506.7C557.8 -434.9 566.5 -335.3 594.4 -246.2C622.3 -157.1 669.4 -78.6 716.6 0L0 0Z" fill="#d6e3ff"></path><path d="M0 -358.3C44.7 -349.9 89.4 -341.6 135.2 -326.4C181 -311.3 227.8 -289.3 253.3 -253.3C278.9 -217.4 283.2 -167.6 297.2 -123.1C311.1 -78.6 334.7 -39.3 358.3 0L0 0Z" fill="#cddeff"></path></g></svg>